<?xml version="1.0" standalone="no"?>
<!DOCTYPE svg PUBLIC "-//W3C//DTD SVG 20010904//EN"
 "http://www.w3.org/TR/2001/REC-SVG-20010904/DTD/svg10.dtd">
<svg version="1.0" xmlns="http://www.w3.org/2000/svg"
 width="1200.000000pt" height="628.000000pt" viewBox="0 0 1200.000000 628.000000"
 preserveAspectRatio="xMidYMid meet">

<g transform="translate(0.000000,628.000000) scale(0.100000,-0.100000)"
fill="#000000" stroke="none">
<path d="M0 3670 l0 -421 393 3 c418 4 427 5 496 56 64 48 75 91 79 323 6 320
-10 377 -117 428 l-56 26 -397 3 -398 3 0 -421z m616 177 c17 -9 34 -24 38
-32 3 -9 6 -77 6 -150 0 -127 -1 -135 -24 -162 l-24 -28 -153 0 -154 0 -3 185
c-1 101 0 191 3 198 8 21 267 12 311 -11z"/>
<path d="M1020 3671 l0 -421 145 0 144 0 3 138 3 137 35 3 c34 3 42 -4 168
-138 l134 -140 170 0 c102 0 168 4 166 9 -1 6 -58 68 -125 140 -68 71 -123
131 -123 134 0 2 19 9 43 16 65 19 125 58 152 99 75 114 44 309 -60 381 -75
51 -104 54 -492 59 l-363 4 0 -421z m630 179 c24 -24 27 -96 6 -126 -13 -17
-28 -19 -178 -19 l-163 0 -3 69 c-2 38 -1 75 2 83 4 10 40 13 161 13 142 0
157 -2 175 -20z"/>
<path d="M2230 4076 c-80 -21 -133 -57 -157 -106 -23 -43 -23 -52 -23 -382 l0
-338 480 0 480 0 0 105 0 105 -327 2 -328 3 0 45 0 45 328 3 328 2 -3 103 -3
102 -329 3 -328 2 7 28 c10 41 48 73 96 83 24 4 160 8 302 9 l257 0 0 100 0
100 -367 -1 c-256 0 -382 -4 -413 -13z"/>
<path d="M3140 4068 c-80 -42 -80 -41 -80 -455 l0 -363 150 0 149 0 3 93 3 92
170 0 170 0 3 -92 3 -93 149 0 150 0 0 360 c0 386 0 390 -52 436 -45 41 -76
44 -432 44 -335 0 -343 0 -386 -22z m560 -227 c5 -11 10 -56 10 -101 l0 -80
-172 2 -173 3 -3 98 -3 97 165 0 c153 0 166 -1 176 -19z"/>
<path d="M4070 3671 l0 -421 150 0 150 0 0 305 0 305 100 0 100 0 0 -305 0
-305 150 0 150 0 0 305 0 305 76 0 c41 0 84 -4 94 -10 34 -18 40 -65 40 -336
l0 -264 150 0 150 0 0 337 c0 320 -1 339 -21 379 -23 48 -58 74 -139 100 -50
16 -109 18 -602 22 l-548 3 0 -420z"/>
<path d="M5662 4079 c-105 -12 -148 -26 -185 -59 l-32 -28 -3 -221 -3 -221
330 0 331 0 0 -32 c0 -65 13 -63 -340 -66 l-320 -3 0 -99 0 -100 378 0 c398 0
465 6 521 47 54 40 61 70 61 276 l0 187 -330 0 -330 0 0 45 c0 34 5 47 19 55
12 6 135 10 331 10 l311 0 -3 108 -3 107 -330 1 c-181 1 -363 -2 -403 -7z"/>
<path d="M6834 4071 c-24 -11 -50 -33 -62 -53 -21 -35 -22 -44 -22 -402 l0
-366 150 0 149 0 3 93 3 92 170 0 170 0 3 -92 3 -93 149 0 150 0 0 360 c0 386
0 390 -52 436 -45 41 -76 44 -432 44 -311 0 -345 -2 -382 -19z m556 -231 c6
-11 10 -55 8 -98 l-3 -77 -172 -3 -173 -2 0 100 0 100 165 0 c154 0 165 -1
175 -20z"/>
<path d="M7750 3670 l0 -420 150 0 150 0 0 130 0 130 44 0 c44 0 46 -1 167
-130 l122 -130 175 0 174 0 -32 38 c-18 20 -77 82 -131 138 -55 56 -99 104
-99 107 0 3 15 9 33 12 164 36 242 181 191 356 -22 73 -54 113 -116 143 -81
39 -157 46 -505 46 l-323 0 0 -420z m636 179 c30 -33 25 -96 -9 -125 -27 -23
-34 -24 -178 -24 l-149 0 0 85 0 85 158 0 c148 0 160 -1 178 -21z"/>
<path d="M8959 4076 c-72 -19 -134 -61 -155 -103 -17 -35 -19 -69 -22 -380
l-3 -343 481 0 480 0 0 105 0 105 -327 2 -328 3 0 55 0 55 328 3 327 2 0 105
0 105 -326 0 -325 0 3 28 c2 20 13 32 43 47 37 18 64 20 323 23 l282 3 0 100
0 99 -367 -1 c-258 0 -382 -4 -414 -13z"/>
<path d="M9797 4084 c-4 -4 -7 -193 -7 -421 l0 -413 155 0 155 0 0 275 0 275
148 0 c158 -1 173 -5 192 -54 6 -16 10 -124 10 -262 l0 -234 156 0 156 0 -4
328 c-4 276 -7 334 -22 372 -23 60 -49 86 -115 112 -54 22 -71 23 -436 26
-209 2 -384 0 -388 -4z"/>
<path d="M10780 4083 c0 -13 93 -263 96 -260 2 2 19 56 39 119 19 64 38 123
41 132 5 14 -6 16 -85 16 -50 0 -91 -3 -91 -7z"/>
<path d="M11010 3965 l0 -125 170 0 170 0 0 -295 0 -295 150 0 150 0 0 295 0
295 175 0 176 0 -3 123 -3 122 -492 3 -493 2 0 -125z"/>
<path d="M8977 3044 c-4 -4 -7 -194 -7 -421 l0 -414 398 3 397 3 55 27 c62 31
94 71 109 138 14 60 14 446 0 510 -13 63 -57 110 -126 136 -43 16 -91 18 -433
22 -212 2 -389 0 -393 -4z m602 -235 c17 -6 36 -19 41 -29 6 -10 10 -80 10
-155 0 -75 -4 -145 -10 -155 -16 -30 -67 -40 -206 -40 l-134 0 0 195 0 195
134 0 c73 0 147 -5 165 -11z"/>
<path d="M2060 2910 l0 -120 173 -2 172 -3 3 -297 2 -298 145 0 145 0 2 298 3
297 173 3 172 2 0 120 0 120 -495 0 -495 0 0 -120z"/>
<path d="M3110 2610 l0 -420 150 0 149 0 3 153 3 152 172 3 172 2 3 -152 3
-153 153 -3 152 -3 0 421 0 421 -152 -3 -153 -3 -3 -137 -3 -138 -174 0 -175
0 0 140 0 140 -150 0 -150 0 0 -420z"/>
<path d="M4122 2613 l3 -418 170 0 170 0 3 418 2 417 -175 0 -175 0 2 -417z"/>
<path d="M4710 3023 c-72 -12 -128 -35 -155 -63 l-30 -31 -3 -215 -3 -214 330
0 331 0 0 -40 c0 -64 -4 -65 -353 -68 l-308 -4 3 -96 3 -97 335 -3 c350 -3
462 5 535 37 79 36 80 37 83 272 l3 209 -330 0 -331 0 0 39 c0 66 -3 66 347
69 l313 3 0 105 0 104 -372 -1 c-205 -1 -384 -4 -398 -6z"/>
<path d="M6075 3021 c-152 -38 -237 -185 -238 -416 -1 -184 73 -331 196 -386
52 -24 54 -24 417 -24 l365 0 3 243 2 242 -230 0 -230 0 0 -90 0 -89 88 -3 87
-3 0 -50 0 -50 -151 1 c-225 0 -235 8 -242 187 -3 86 -1 117 13 153 28 73 31
74 370 74 l295 0 0 110 0 110 -357 -1 c-197 -1 -371 -4 -388 -8z"/>
<path d="M7055 3016 c-106 -27 -156 -74 -176 -164 -6 -32 -9 -137 -7 -279 3
-220 4 -229 27 -270 51 -89 153 -113 481 -113 320 0 415 23 462 113 21 39 23
56 26 269 4 259 -4 321 -49 372 -16 19 -53 44 -81 57 -52 23 -61 24 -343 26
-207 1 -304 -2 -340 -11z m491 -250 c10 -15 14 -55 14 -162 0 -183 10 -174
-191 -174 -201 0 -194 -7 -194 180 0 189 -8 183 203 178 138 -3 155 -5 168
-22z"/>
<path d="M8109 3017 c-76 -17 -132 -56 -158 -109 -20 -42 -21 -60 -21 -299 0
-226 2 -259 19 -295 23 -50 58 -77 136 -101 52 -16 96 -18 350 -18 276 0 293
1 350 22 68 26 109 65 124 120 6 22 11 141 11 279 0 238 0 241 -26 292 -22 45
-34 55 -92 84 l-67 33 -285 2 c-198 1 -302 -2 -341 -10z m488 -250 c34 -33 30
-288 -4 -323 -13 -13 -41 -15 -175 -12 -144 3 -161 5 -174 22 -10 15 -14 55
-14 158 0 188 -8 180 195 176 132 -3 157 -6 172 -21z"/>
<path d="M9970 3011 c0 -5 7 -11 15 -15 11 -4 15 -20 15 -56 0 -27 5 -50 10
-50 6 0 10 23 10 50 0 36 4 52 15 56 28 11 15 24 -25 24 -22 0 -40 -4 -40 -9z"/>
<path d="M10077 3013 c-11 -10 -8 -123 3 -123 6 0 10 19 11 43 l1 42 15 -42
c8 -24 18 -43 22 -43 4 0 14 19 22 43 l14 42 3 -42 c2 -24 8 -43 13 -43 14 0
7 122 -7 127 -6 2 -19 -15 -28 -39 -13 -32 -20 -39 -27 -27 -5 7 -9 21 -9 30
0 19 -24 42 -33 32z"/>
<path d="M9975 2280 c-15 -16 -17 -26 -9 -47 13 -36 37 -49 70 -38 33 12 46
44 30 76 -16 33 -65 38 -91 9z"/>
</g>
</svg>
